<svg width="96" height="96" viewBox="0 0 96 96" fill="none" xmlns="http://www.w3.org/2000/svg">
<circle cx="48" cy="48" r="48" fill="#2B3137"/>
<g clip-path="url(#clip0)">
<path d="M61.005 43.9425C63.7448 43.9425 66.1172 42.9599 68.0556 41.0212C69.994 39.0828 70.9766 36.711 70.9766 33.971C70.9766 31.2318 69.994 28.8598 68.0553 26.9207C66.1165 24.9826 63.7445 24 61.005 24C58.265 24 55.8932 24.9826 53.9548 26.921C52.0164 28.8595 51.0334 31.2315 51.0334 33.971C51.0334 36.711 52.0164 39.0831 53.9551 41.0215C55.8938 42.9596 58.2659 43.9425 61.005 43.9425V43.9425Z" fill="#F2F2F2"/>
<path d="M78.4526 55.8345C78.3967 55.0278 78.2836 54.1478 78.1171 53.2186C77.9491 52.2824 77.7327 51.3974 77.4737 50.5885C77.2062 49.7524 76.8423 48.9267 76.3925 48.1355C75.9257 47.3143 75.3774 46.5992 74.7621 46.0108C74.1187 45.3952 73.3309 44.9002 72.42 44.5392C71.5122 44.1801 70.5062 43.9981 69.4301 43.9981C69.0075 43.9981 68.5988 44.1715 67.8095 44.6854C67.3237 45.0022 66.7554 45.3686 66.1212 45.7739C65.5789 46.1194 64.8442 46.4432 63.9367 46.7363C63.0514 47.0228 62.1525 47.1681 61.2652 47.1681C60.378 47.1681 59.4794 47.0228 58.5931 46.7363C57.6866 46.4435 56.9519 46.1197 56.4102 45.7742C55.782 45.3727 55.2134 45.0063 54.7204 44.6851C53.932 44.1712 53.523 43.9978 53.1003 43.9978C52.0239 43.9978 51.0182 44.1801 50.1108 44.5395C49.2005 44.8999 48.4124 45.3948 47.7684 46.0111C47.1534 46.5998 46.6048 47.3146 46.1385 48.1355C45.6891 48.9267 45.3252 49.7521 45.0574 50.5888C44.7987 51.3977 44.5823 52.2824 44.4143 53.2186C44.2478 54.1466 44.1348 55.0269 44.0788 55.8355C44.0239 56.6276 43.9961 57.4498 43.9961 58.2802C43.9961 60.4413 44.6831 62.1908 46.0378 63.4811C47.3758 64.7543 49.1461 65.4002 51.299 65.4002H71.2333C73.3862 65.4002 75.156 64.7546 76.4943 63.4811C77.8493 62.1918 78.5363 60.4419 78.5363 58.2799C78.5359 57.4457 78.5078 56.6229 78.4526 55.8345V55.8345Z" fill="#F2F2F2"/>
</g>
<g clip-path="url(#clip1)">
<path d="M53.2273 62.159C53.1689 61.3164 53.0508 60.3973 52.8769 59.4268C52.7014 58.449 52.4754 57.5246 52.2049 56.6797C51.9255 55.8065 51.5455 54.9442 51.0757 54.1178C50.5881 53.26 50.0154 52.5132 49.3728 51.8986C48.7008 51.2556 47.878 50.7387 46.9266 50.3616C45.9785 49.9865 44.9277 49.7965 43.8038 49.7965C43.3624 49.7965 42.9355 49.9776 42.1111 50.5143C41.6037 50.8452 41.0102 51.2279 40.3478 51.6511C39.7814 52.0121 39.014 52.3502 38.0662 52.6563C37.1415 52.9556 36.2027 53.1073 35.276 53.1073C34.3493 53.1073 33.4108 52.9556 32.4851 52.6563C31.5383 52.3505 30.7709 52.0124 30.2052 51.6515C29.549 51.2322 28.9552 50.8495 28.4402 50.514C27.6168 49.9773 27.1896 49.7961 26.7482 49.7961C25.6239 49.7961 24.5735 49.9865 23.6257 50.3619C22.675 50.7383 21.8519 51.2553 21.1792 51.8989C20.5369 52.5138 19.9639 53.2604 19.4769 54.1178C19.0075 54.9442 18.6275 55.8062 18.3477 56.6801C18.0775 57.5249 17.8515 58.449 17.676 59.4268C17.5022 60.396 17.3841 61.3154 17.3257 62.16C17.2683 62.9874 17.2393 63.8461 17.2393 64.7134C17.2393 66.9705 17.9568 68.7978 19.3717 70.1454C20.7691 71.4752 22.6182 72.1499 24.8668 72.1499H45.6872C47.9357 72.1499 49.7841 71.4756 51.1819 70.1454C52.5972 68.7988 53.3147 66.9712 53.3147 64.713C53.3144 63.8418 53.285 62.9824 53.2273 62.159V62.159Z" fill="#F2F2F2"/>
<path d="M34.312 49.4291C37.1735 49.4291 39.6514 48.4028 41.676 46.3779C43.7005 44.3533 44.7268 41.8761 44.7268 39.0142C44.7268 36.1534 43.7005 33.6759 41.6756 31.6506C39.6507 29.6264 37.1732 28.6001 34.312 28.6001C31.4502 28.6001 28.973 29.6264 26.9484 31.651C24.9239 33.6755 23.8972 36.1531 23.8972 39.0142C23.8972 41.8761 24.9239 44.3536 26.9488 46.3782C28.9737 48.4024 31.4512 49.4291 34.312 49.4291V49.4291Z" fill="#F2F2F2"/>
</g>
<defs>
<clipPath id="clip0">
<rect x="40.6001" y="24" width="41.3999" height="41.4001" fill="white"/>
</clipPath>
<clipPath id="clip1">
<rect x="13" y="28.6001" width="43.2401" height="43.2403" fill="white"/>
</clipPath>
</defs>
</svg>
