<svg width="96" height="96" viewBox="0 0 96 96" fill="none" xmlns="http://www.w3.org/2000/svg">
<circle cx="48" cy="48" r="48" fill="#2B3137"/>
<path d="M79.9055 29C79.8535 29 79.7841 29 79.732 29C75.9671 29.1735 72.2022 29.347 68.4373 29.5378C67.8474 29.5725 67.2749 29.5899 66.9452 30.3012C66.6156 30.9952 66.9973 31.3943 67.3963 31.7933C68.5588 32.9557 69.6865 34.1182 70.8663 35.2633L69.5824 36.5472L59.1725 46.957L58.253 47.8766L55.9802 50.1494L47.0103 59.1192L46.4898 58.5987L35.7677 47.8766L33.4775 45.5864L32.8529 44.9618C32.3671 44.476 31.7252 44.2331 31.1006 44.2331C30.4586 44.2331 29.8341 44.476 29.3483 44.9618L28.741 45.5864L15.7287 58.5987C14.7571 59.5703 14.7571 61.1491 15.7287 62.1034L16.3533 62.728C16.8391 63.2138 17.481 63.4567 18.1056 63.4567C18.7476 63.4567 19.3721 63.2138 19.8579 62.728L31.1006 51.4853L31.6211 52.0058L42.3432 62.728L44.6161 65.0008L45.2407 65.6254C45.7264 66.1112 46.3684 66.3541 46.993 66.3541C47.6349 66.3541 48.2595 66.1112 48.7453 65.6254L49.3699 65.0008L60.0921 54.2786L62.3649 52.0058L63.2844 51.0863L73.6943 40.6764L74.9608 39.4099L78.3614 42.7757C78.6737 43.088 78.986 43.435 79.4371 43.435C79.6106 43.435 79.7841 43.383 79.9923 43.2789C80.6689 42.9145 80.825 42.3246 80.8424 41.648C80.9985 37.9698 81.1894 34.309 81.3629 30.6309C81.4496 29.5031 80.9812 29 79.9055 29Z" fill="#F2F2F2"/>
</svg>
