<svg width="96" height="96" viewBox="0 0 96 96" fill="none" xmlns="http://www.w3.org/2000/svg">
<circle cx="48" cy="48" r="48" fill="#2B3137"/>
<path d="M80.5912 47.1143L63.7469 30.27C63.2231 29.7463 62.2964 29.7463 61.7726 30.27L58.1207 33.9219C57.5753 34.4673 57.5753 35.3515 58.1207 35.8969L70.3264 48.1012L58.1214 60.3075C57.576 60.8529 57.576 61.7371 58.1214 62.2825L61.7733 65.9344C62.0352 66.1963 62.3907 66.3443 62.7608 66.3443C63.1303 66.3443 63.4864 66.1963 63.7483 65.9344L80.5912 49.0908C81.1367 48.5446 81.1367 47.6598 80.5912 47.1143Z" fill="#F2F2F2"/>
<path d="M37.8789 60.3074L25.6753 48.1024L37.881 35.8982C38.1428 35.6363 38.2902 35.2815 38.2902 34.9107C38.2902 34.5405 38.1435 34.1851 37.881 33.9232L34.2291 30.2713C33.9672 30.0094 33.6117 29.8621 33.2416 29.8621C32.8714 29.8621 32.516 30.0094 32.2541 30.2713L15.4091 47.1142C14.8636 47.6597 14.8636 48.5438 15.4091 49.0899L32.2534 65.9336C32.5153 66.1954 32.8708 66.3435 33.2409 66.3435C33.611 66.3435 33.9665 66.1954 34.2284 65.9336L37.8803 62.2817C38.4257 61.737 38.4257 60.8528 37.8789 60.3074Z" fill="#F2F2F2"/>
<path d="M57.5788 24.6033C57.4014 24.2779 57.1025 24.0362 56.7478 23.9315L53.7873 23.0578C53.0484 22.8385 52.2704 23.2624 52.0525 24.002L38.309 70.5444C38.2043 70.8999 38.2448 71.2819 38.4215 71.6066C38.5982 71.9328 38.8978 72.1737 39.2526 72.2792L42.213 73.1528C42.345 73.1919 42.4784 73.2108 42.609 73.2108C43.2117 73.2108 43.7683 72.8169 43.9478 72.2086L57.6913 25.6656C57.796 25.3101 57.7562 24.9281 57.5788 24.6033Z" fill="#F2F2F2"/>
</svg>
